<svg width="24" height="25" viewBox="0 0 24 25" fill="none" xmlns="http://www.w3.org/2000/svg">
<path d="M22 16.1306C22 18.892 19.7614 21.1306 17 21.1306C16.1046 21.1306 15.2641 20.8952 14.5371 20.4829C13.2572 19.7571 12.329 18.4829 12.0718 16.9798C12.0246 16.7038 12 16.4201 12 16.1306C12 14.8468 12.4839 13.6759 13.2793 12.7905C14.1946 11.7715 15.5224 11.1306 17 11.1306C19.7614 11.1306 22 13.3692 22 16.1306Z" stroke="#144C68" stroke-width="2" stroke-linecap="round" stroke-linejoin="round"/>
<path d="M17 6.63062V10.6306V11.1306C15.5224 11.1306 14.1946 11.7715 13.2793 12.7905C12.4839 13.6759 12 14.8468 12 16.1306C12 16.4201 12.0246 16.7038 12.0718 16.9798C12.329 18.4829 13.2572 19.7571 14.5371 20.4829C13.2058 20.8854 11.4388 21.1306 9.5 21.1306C5.35785 21.1306 2 20.0113 2 18.6306V14.6306V10.6306V6.63062" stroke="#144C68" stroke-width="2" stroke-linecap="round" stroke-linejoin="round"/>
<path d="M17 6.63062C17 8.01132 13.6421 9.13062 9.5 9.13062C5.35785 9.13062 2 8.01132 2 6.63062C2 5.24991 5.35785 4.13062 9.5 4.13062C13.6421 4.13062 17 5.24991 17 6.63062Z" stroke="#144C68" stroke-width="2" stroke-linecap="round" stroke-linejoin="round"/>
<path d="M2 14.6306C2 16.0113 5.35785 17.1306 9.5 17.1306C10.4035 17.1306 11.2697 17.0774 12.0718 16.9798" stroke="#144C68" stroke-width="2" stroke-linecap="round" stroke-linejoin="round"/>
<path d="M2 10.6306C2 12.0113 5.35785 13.1306 9.5 13.1306C10.8781 13.1306 12.1695 13.0067 13.2793 12.7905" stroke="#144C68" stroke-width="2" stroke-linecap="round" stroke-linejoin="round"/>
<path d="M17 13.6306V18.6306M17 18.6306L19 16.6306M17 18.6306L15 16.6306" stroke="#144C68" stroke-width="2" stroke-linecap="round" stroke-linejoin="round"/>
</svg>
