<svg width="24" height="25" viewBox="0 0 24 25" fill="none" xmlns="http://www.w3.org/2000/svg">
<path d="M4 7.17096C4 6.23908 4 5.77313 4.15224 5.40559C4.35523 4.91554 4.74458 4.52619 5.23463 4.3232C5.60218 4.17096 6.06812 4.17096 7 4.17096C7.93188 4.17096 8.39782 4.17096 8.76537 4.3232C9.25542 4.52619 9.64477 4.91554 9.84776 5.40559C10 5.77313 10 6.23908 10 7.17096C10 8.10284 10 8.56878 9.84776 8.93633C9.64477 9.42638 9.25542 9.81573 8.76537 10.0187C8.39782 10.171 7.93188 10.171 7 10.171C6.06812 10.171 5.60218 10.171 5.23463 10.0187C4.74458 9.81573 4.35523 9.42638 4.15224 8.93633C4 8.56878 4 8.10284 4 7.17096Z" fill="#144C68"/>
<path d="M14 7.17096C14 6.23908 14 5.77313 14.1522 5.40559C14.3552 4.91554 14.7446 4.52619 15.2346 4.3232C15.6022 4.17096 16.0681 4.17096 17 4.17096C17.9319 4.17096 18.3978 4.17096 18.7654 4.3232C19.2554 4.52619 19.6448 4.91554 19.8478 5.40559C20 5.77313 20 6.23908 20 7.17096C20 8.10284 20 8.56878 19.8478 8.93633C19.6448 9.42638 19.2554 9.81573 18.7654 10.0187C18.3978 10.171 17.9319 10.171 17 10.171C16.0681 10.171 15.6022 10.171 15.2346 10.0187C14.7446 9.81573 14.3552 9.42638 14.1522 8.93633C14 8.56878 14 8.10284 14 7.17096Z" fill="#144C68"/>
<path d="M4 17.171C4 16.2391 4 15.7731 4.15224 15.4056C4.35523 14.9155 4.74458 14.5262 5.23463 14.3232C5.60218 14.171 6.06812 14.171 7 14.171C7.93188 14.171 8.39782 14.171 8.76537 14.3232C9.25542 14.5262 9.64477 14.9155 9.84776 15.4056C10 15.7731 10 16.2391 10 17.171C10 18.1028 10 18.5688 9.84776 18.9363C9.64477 19.4264 9.25542 19.8157 8.76537 20.0187C8.39782 20.171 7.93188 20.171 7 20.171C6.06812 20.171 5.60218 20.171 5.23463 20.0187C4.74458 19.8157 4.35523 19.4264 4.15224 18.9363C4 18.5688 4 18.1028 4 17.171Z" fill="#144C68"/>
<path d="M14 17.171C14 16.2391 14 15.7731 14.1522 15.4056C14.3552 14.9155 14.7446 14.5262 15.2346 14.3232C15.6022 14.171 16.0681 14.171 17 14.171C17.9319 14.171 18.3978 14.171 18.7654 14.3232C19.2554 14.5262 19.6448 14.9155 19.8478 15.4056C20 15.7731 20 16.2391 20 17.171C20 18.1028 20 18.5688 19.8478 18.9363C19.6448 19.4264 19.2554 19.8157 18.7654 20.0187C18.3978 20.171 17.9319 20.171 17 20.171C16.0681 20.171 15.6022 20.171 15.2346 20.0187C14.7446 19.8157 14.3552 19.4264 14.1522 18.9363C14 18.5688 14 18.1028 14 17.171Z" fill="#144C68"/>
</svg>
