<svg width="24" height="24" viewBox="0 0 24 24" fill="none" xmlns="http://www.w3.org/2000/svg">
<path d="M15.0808 21.75C15.9328 21.7501 16.4518 21.7501 16.8995 21.6792C19.3599 21.2895 21.2895 19.3599 21.6792 16.8995C21.7501 16.4518 21.7501 15.9328 21.75 15.0808L21.75 8.91917C21.7501 8.06716 21.7501 7.54817 21.6792 7.10049C21.2895 4.64011 19.3599 2.71047 16.8995 2.32078C16.4518 2.24988 15.9328 2.24992 15.0808 2.24999L14 2.24999C12.7064 2.24999 11.5106 2.67805 10.5496 3.39995C10.2184 3.64872 10.1516 4.11887 10.4003 4.45006C10.6491 4.78125 11.1192 4.84807 11.4504 4.5993C12.1607 4.06582 13.0424 3.74999 14 3.74999L15 3.74999C15.9577 3.74999 16.3492 3.75232 16.6648 3.80232C18.4834 4.09035 19.9096 5.5166 20.1977 7.33514C20.2477 7.65081 20.25 8.04233 20.25 8.99999L20.25 15C20.25 15.9577 20.2477 16.3492 20.1977 16.6648C19.9096 18.4834 18.4834 19.9096 16.6648 20.1977C16.3492 20.2477 15.9577 20.25 15 20.25L14 20.25C13.0424 20.25 12.1607 19.9342 11.4504 19.4007C11.1192 19.1519 10.6491 19.2187 10.4003 19.5499C10.1515 19.8811 10.2184 20.3513 10.5496 20.6C11.5106 21.3219 12.7064 21.75 14 21.75L15.0808 21.75Z" fill="#EB575F"/>
<path d="M6.53402 16.5877C6.85859 16.845 7.33033 16.7905 7.58768 16.466C7.84502 16.1414 7.79053 15.6697 7.46596 15.4123L5.70299 14.0145C4.99897 13.4562 4.51696 13.0726 4.18951 12.75L17 12.75C17.4142 12.75 17.75 12.4142 17.75 12C17.75 11.5858 17.4142 11.25 17 11.25L4.18951 11.25C4.51696 10.9273 4.99897 10.5437 5.70299 9.98552L7.46596 8.58767C7.79053 8.33033 7.84503 7.85859 7.58768 7.53402C7.33033 7.20945 6.85859 7.15496 6.53402 7.41231L4.73525 8.83854C4.06276 9.37173 3.50784 9.8117 3.11251 10.2055C2.70684 10.6096 2.37055 11.0581 2.27923 11.6313C2.25977 11.7534 2.24999 11.8766 2.24999 12C2.24999 12.1234 2.25977 12.2466 2.27923 12.3687C2.37055 12.9418 2.70684 13.3904 3.11251 13.7945C3.50783 14.1883 4.06275 14.6282 4.73523 15.1614L6.53402 16.5877Z" fill="#EB575F"/>
</svg>
