<svg width="224" height="36" viewBox="0 0 224 36" fill="none" xmlns="http://www.w3.org/2000/svg">
<rect x="21.2134" y="17.6776" width="25" height="25" transform="rotate(-45 21.2134 17.6776)" fill="#DDEDFF"/>
<rect y="17.6776" width="25" height="25" transform="rotate(-45 0 17.6776)" fill="#144C68"/>
<path d="M62.66 25V11H68.72C69.9733 11 71.0533 11.2067 71.96 11.62C72.8667 12.02 73.5667 12.6 74.06 13.36C74.5533 14.12 74.8 15.0267 74.8 16.08C74.8 17.12 74.5533 18.02 74.06 18.78C73.5667 19.5267 72.8667 20.1 71.96 20.5C71.0533 20.9 69.9733 21.1 68.72 21.1H64.46L65.9 19.68V25H62.66ZM71.56 25L68.06 19.92H71.52L75.06 25H71.56ZM65.9 20.04L64.46 18.52H68.54C69.54 18.52 70.2867 18.3067 70.78 17.88C71.2733 17.44 71.52 16.84 71.52 16.08C71.52 15.3067 71.2733 14.7067 70.78 14.28C70.2867 13.8533 69.54 13.64 68.54 13.64H64.46L65.9 12.1V20.04ZM83.687 14.08C84.5404 14.08 85.3004 14.2533 85.967 14.6C86.647 14.9333 87.1804 15.4533 87.567 16.16C87.9537 16.8533 88.147 17.7467 88.147 18.84V25H85.027V19.32C85.027 18.4533 84.8337 17.8133 84.447 17.4C84.0737 16.9867 83.5404 16.78 82.847 16.78C82.3537 16.78 81.907 16.8867 81.507 17.1C81.1204 17.3 80.8137 17.6133 80.587 18.04C80.3737 18.4667 80.267 19.0133 80.267 19.68V25H77.147V14.24H80.127V17.22L79.567 16.32C79.9537 15.6 80.507 15.0467 81.227 14.66C81.947 14.2733 82.767 14.08 83.687 14.08ZM94.1752 16.64H100.915V19.16H94.1752V16.64ZM94.4152 22.4H102.035V25H91.1952V11H101.775V13.6H94.4152V22.4ZM110.277 25V11H116.637C118.157 11 119.497 11.2933 120.657 11.88C121.817 12.4533 122.724 13.26 123.377 14.3C124.031 15.34 124.357 16.5733 124.357 18C124.357 19.4133 124.031 20.6467 123.377 21.7C122.724 22.74 121.817 23.5533 120.657 24.14C119.497 24.7133 118.157 25 116.637 25H110.277ZM113.517 22.34H116.477C117.411 22.34 118.217 22.1667 118.897 21.82C119.591 21.46 120.124 20.9533 120.497 20.3C120.884 19.6467 121.077 18.88 121.077 18C121.077 17.1067 120.884 16.34 120.497 15.7C120.124 15.0467 119.591 14.5467 118.897 14.2C118.217 13.84 117.411 13.66 116.477 13.66H113.517V22.34ZM133.181 25V22.9L132.981 22.44V18.68C132.981 18.0133 132.774 17.4933 132.361 17.12C131.961 16.7467 131.341 16.56 130.501 16.56C129.927 16.56 129.361 16.6533 128.801 16.84C128.254 17.0133 127.787 17.2533 127.401 17.56L126.281 15.38C126.867 14.9667 127.574 14.6467 128.401 14.42C129.227 14.1933 130.067 14.08 130.921 14.08C132.561 14.08 133.834 14.4667 134.741 15.24C135.647 16.0133 136.101 17.22 136.101 18.86V25H133.181ZM129.901 25.16C129.061 25.16 128.341 25.02 127.741 24.74C127.141 24.4467 126.681 24.0533 126.361 23.56C126.041 23.0667 125.881 22.5133 125.881 21.9C125.881 21.26 126.034 20.7 126.341 20.22C126.661 19.74 127.161 19.3667 127.841 19.1C128.521 18.82 129.407 18.68 130.501 18.68H133.361V20.5H130.841C130.107 20.5 129.601 20.62 129.321 20.86C129.054 21.1 128.921 21.4 128.921 21.76C128.921 22.16 129.074 22.48 129.381 22.72C129.701 22.9467 130.134 23.06 130.681 23.06C131.201 23.06 131.667 22.94 132.081 22.7C132.494 22.4467 132.794 22.08 132.981 21.6L133.461 23.04C133.234 23.7333 132.821 24.26 132.221 24.62C131.621 24.98 130.847 25.16 129.901 25.16ZM142.544 25.16C141.624 25.16 140.738 25.0533 139.884 24.84C139.044 24.6133 138.378 24.3333 137.884 24L138.924 21.76C139.418 22.0667 139.998 22.32 140.664 22.52C141.344 22.7067 142.011 22.8 142.664 22.8C143.384 22.8 143.891 22.7133 144.184 22.54C144.491 22.3667 144.644 22.1267 144.644 21.82C144.644 21.5667 144.524 21.38 144.284 21.26C144.058 21.1267 143.751 21.0267 143.364 20.96C142.978 20.8933 142.551 20.8267 142.084 20.76C141.631 20.6933 141.171 20.6067 140.704 20.5C140.238 20.38 139.811 20.2067 139.424 19.98C139.038 19.7533 138.724 19.4467 138.484 19.06C138.258 18.6733 138.144 18.1733 138.144 17.56C138.144 16.88 138.338 16.28 138.724 15.76C139.124 15.24 139.698 14.8333 140.444 14.54C141.191 14.2333 142.084 14.08 143.124 14.08C143.858 14.08 144.604 14.16 145.364 14.32C146.124 14.48 146.758 14.7133 147.264 15.02L146.224 17.24C145.704 16.9333 145.178 16.7267 144.644 16.62C144.124 16.5 143.618 16.44 143.124 16.44C142.431 16.44 141.924 16.5333 141.604 16.72C141.284 16.9067 141.124 17.1467 141.124 17.44C141.124 17.7067 141.238 17.9067 141.464 18.04C141.704 18.1733 142.018 18.28 142.404 18.36C142.791 18.44 143.211 18.5133 143.664 18.58C144.131 18.6333 144.598 18.72 145.064 18.84C145.531 18.96 145.951 19.1333 146.324 19.36C146.711 19.5733 147.024 19.8733 147.264 20.26C147.504 20.6333 147.624 21.1267 147.624 21.74C147.624 22.4067 147.424 23 147.024 23.52C146.624 24.0267 146.044 24.4267 145.284 24.72C144.538 25.0133 143.624 25.16 142.544 25.16ZM156.089 14.08C156.943 14.08 157.703 14.2533 158.369 14.6C159.049 14.9333 159.583 15.4533 159.969 16.16C160.356 16.8533 160.549 17.7467 160.549 18.84V25H157.429V19.32C157.429 18.4533 157.236 17.8133 156.849 17.4C156.476 16.9867 155.943 16.78 155.249 16.78C154.756 16.78 154.309 16.8867 153.909 17.1C153.523 17.3 153.216 17.6133 152.989 18.04C152.776 18.4667 152.669 19.0133 152.669 19.68V25H149.549V10.16H152.669V17.22L151.969 16.32C152.356 15.6 152.909 15.0467 153.629 14.66C154.349 14.2733 155.169 14.08 156.089 14.08ZM169.738 25.16C168.791 25.16 167.978 24.96 167.298 24.56C166.618 24.16 166.098 23.5533 165.738 22.74C165.378 21.9133 165.198 20.8733 165.198 19.62C165.198 18.3533 165.384 17.3133 165.758 16.5C166.144 15.6867 166.678 15.08 167.358 14.68C168.038 14.28 168.831 14.08 169.738 14.08C170.751 14.08 171.658 14.3067 172.458 14.76C173.271 15.2133 173.911 15.8533 174.378 16.68C174.858 17.5067 175.098 18.4867 175.098 19.62C175.098 20.74 174.858 21.7133 174.378 22.54C173.911 23.3667 173.271 24.0133 172.458 24.48C171.658 24.9333 170.751 25.16 169.738 25.16ZM163.378 25V10.16H166.498V16.42L166.298 19.6L166.358 22.8V25H163.378ZM169.198 22.6C169.718 22.6 170.178 22.48 170.578 22.24C170.991 22 171.318 21.66 171.558 21.22C171.811 20.7667 171.938 20.2333 171.938 19.62C171.938 18.9933 171.811 18.46 171.558 18.02C171.318 17.58 170.991 17.24 170.578 17C170.178 16.76 169.718 16.64 169.198 16.64C168.678 16.64 168.211 16.76 167.798 17C167.384 17.24 167.058 17.58 166.818 18.02C166.578 18.46 166.458 18.9933 166.458 19.62C166.458 20.2333 166.578 20.7667 166.818 21.22C167.058 21.66 167.384 22 167.798 22.24C168.211 22.48 168.678 22.6 169.198 22.6ZM182.306 25.16C181.159 25.16 180.139 24.92 179.246 24.44C178.366 23.96 177.666 23.3067 177.146 22.48C176.639 21.64 176.386 20.6867 176.386 19.62C176.386 18.54 176.639 17.5867 177.146 16.76C177.666 15.92 178.366 15.2667 179.246 14.8C180.139 14.32 181.159 14.08 182.306 14.08C183.439 14.08 184.453 14.32 185.346 14.8C186.239 15.2667 186.939 15.9133 187.446 16.74C187.953 17.5667 188.206 18.5267 188.206 19.62C188.206 20.6867 187.953 21.64 187.446 22.48C186.939 23.3067 186.239 23.96 185.346 24.44C184.453 24.92 183.439 25.16 182.306 25.16ZM182.306 22.6C182.826 22.6 183.293 22.48 183.706 22.24C184.119 22 184.446 21.66 184.686 21.22C184.926 20.7667 185.046 20.2333 185.046 19.62C185.046 18.9933 184.926 18.46 184.686 18.02C184.446 17.58 184.119 17.24 183.706 17C183.293 16.76 182.826 16.64 182.306 16.64C181.786 16.64 181.319 16.76 180.906 17C180.493 17.24 180.159 17.58 179.906 18.02C179.666 18.46 179.546 18.9933 179.546 19.62C179.546 20.2333 179.666 20.7667 179.906 21.22C180.159 21.66 180.493 22 180.906 22.24C181.319 22.48 181.786 22.6 182.306 22.6ZM196.716 25V22.9L196.516 22.44V18.68C196.516 18.0133 196.309 17.4933 195.896 17.12C195.496 16.7467 194.876 16.56 194.036 16.56C193.462 16.56 192.896 16.6533 192.336 16.84C191.789 17.0133 191.322 17.2533 190.936 17.56L189.816 15.38C190.402 14.9667 191.109 14.6467 191.936 14.42C192.762 14.1933 193.602 14.08 194.456 14.08C196.096 14.08 197.369 14.4667 198.276 15.24C199.182 16.0133 199.636 17.22 199.636 18.86V25H196.716ZM193.436 25.16C192.596 25.16 191.876 25.02 191.276 24.74C190.676 24.4467 190.216 24.0533 189.896 23.56C189.576 23.0667 189.416 22.5133 189.416 21.9C189.416 21.26 189.569 20.7 189.876 20.22C190.196 19.74 190.696 19.3667 191.376 19.1C192.056 18.82 192.942 18.68 194.036 18.68H196.896V20.5H194.376C193.642 20.5 193.136 20.62 192.856 20.86C192.589 21.1 192.456 21.4 192.456 21.76C192.456 22.16 192.609 22.48 192.916 22.72C193.236 22.9467 193.669 23.06 194.216 23.06C194.736 23.06 195.202 22.94 195.616 22.7C196.029 22.4467 196.329 22.08 196.516 21.6L196.996 23.04C196.769 23.7333 196.356 24.26 195.756 24.62C195.156 24.98 194.382 25.16 193.436 25.16ZM202.46 25V14.24H205.44V17.28L205.02 16.4C205.34 15.64 205.853 15.0667 206.56 14.68C207.266 14.28 208.126 14.08 209.14 14.08V16.96C209.006 16.9467 208.886 16.94 208.78 16.94C208.673 16.9267 208.56 16.92 208.44 16.92C207.586 16.92 206.893 17.1667 206.36 17.66C205.84 18.14 205.58 18.8933 205.58 19.92V25H202.46ZM215.537 25.16C214.523 25.16 213.61 24.9333 212.797 24.48C211.983 24.0133 211.337 23.3667 210.857 22.54C210.39 21.7133 210.157 20.74 210.157 19.62C210.157 18.4867 210.39 17.5067 210.857 16.68C211.337 15.8533 211.983 15.2133 212.797 14.76C213.61 14.3067 214.523 14.08 215.537 14.08C216.443 14.08 217.237 14.28 217.917 14.68C218.597 15.08 219.123 15.6867 219.497 16.5C219.87 17.3133 220.057 18.3533 220.057 19.62C220.057 20.8733 219.877 21.9133 219.517 22.74C219.157 23.5533 218.637 24.16 217.957 24.56C217.29 24.96 216.483 25.16 215.537 25.16ZM216.077 22.6C216.583 22.6 217.043 22.48 217.457 22.24C217.87 22 218.197 21.66 218.437 21.22C218.69 20.7667 218.817 20.2333 218.817 19.62C218.817 18.9933 218.69 18.46 218.437 18.02C218.197 17.58 217.87 17.24 217.457 17C217.043 16.76 216.583 16.64 216.077 16.64C215.557 16.64 215.09 16.76 214.677 17C214.263 17.24 213.93 17.58 213.677 18.02C213.437 18.46 213.317 18.9933 213.317 19.62C213.317 20.2333 213.437 20.7667 213.677 21.22C213.93 21.66 214.263 22 214.677 22.24C215.09 22.48 215.557 22.6 216.077 22.6ZM218.897 25V22.8L218.957 19.6L218.757 16.42V10.16H221.877V25H218.897Z" fill="#144C68"/>
</svg>
