<svg width="24" height="25" viewBox="0 0 24 25" fill="none" xmlns="http://www.w3.org/2000/svg">
<path d="M7.5 6.17096L9 3.17096H15L16.5 6.17096H7.5Z" fill="#144C68" stroke="#144C68" stroke-width="2" stroke-linejoin="round"/>
<path d="M20.5 6.17096H3.5C2.67157 6.17096 2 6.84253 2 7.67096V19.671C2 20.4994 2.67157 21.171 3.5 21.171H20.5C21.3284 21.171 22 20.4994 22 19.671V7.67096C22 6.84253 21.3284 6.17096 20.5 6.17096Z" fill="#144C68" stroke="#144C68" stroke-width="2" stroke-linejoin="round"/>
<path d="M12 17.671C14.2092 17.671 16 15.8801 16 13.671C16 11.4618 14.2092 9.67096 12 9.67096C9.79085 9.67096 8 11.4618 8 13.671C8 15.8801 9.79085 17.671 12 17.671Z" fill="#144C68" stroke="white" stroke-width="2" stroke-linejoin="round"/>
</svg>
