<svg width="187" height="36" viewBox="0 0 187 36" fill="none" xmlns="http://www.w3.org/2000/svg">
<rect x="21.2132" y="17.6777" width="25" height="25" transform="rotate(-45 21.2132 17.6777)" fill="#DDEDFF"/>
<rect y="17.6777" width="25" height="25" transform="rotate(-45 0 17.6777)" fill="#144C68"/>
<path d="M67.992 26.4644V9.66435H75.264C76.768 9.66435 78.064 9.91235 79.152 10.4084C80.24 10.8884 81.08 11.5844 81.672 12.4964C82.264 13.4084 82.56 14.4964 82.56 15.7604C82.56 17.0084 82.264 18.0884 81.672 19.0004C81.08 19.9124 80.24 20.6164 79.152 21.1124C78.064 21.5924 76.768 21.8324 75.264 21.8324H70.152L71.88 20.0804V26.4644H67.992ZM71.88 20.5124L70.152 18.6644H75.048C76.248 18.6644 77.144 18.4084 77.736 17.8964C78.328 17.3844 78.624 16.6724 78.624 15.7604C78.624 14.8324 78.328 14.1124 77.736 13.6004C77.144 13.0884 76.248 12.8324 75.048 12.8324H70.152L71.88 10.9844V20.5124ZM85.0483 26.4644V13.5524H88.6243V17.2004L88.1203 16.1444C88.5043 15.2324 89.1203 14.5444 89.9683 14.0804C90.8163 13.6004 91.8483 13.3604 93.0643 13.3604V16.8164C92.9043 16.8004 92.7603 16.7924 92.6323 16.7924C92.5043 16.7764 92.3683 16.7684 92.2243 16.7684C91.2003 16.7684 90.3683 17.0644 89.7283 17.6564C89.1043 18.2324 88.7923 19.1364 88.7923 20.3684V26.4644H85.0483ZM101.341 26.6564C99.9648 26.6564 98.7408 26.3684 97.6688 25.7924C96.6128 25.2164 95.7728 24.4324 95.1488 23.4404C94.5408 22.4324 94.2368 21.2884 94.2368 20.0084C94.2368 18.7124 94.5408 17.5684 95.1488 16.5764C95.7728 15.5684 96.6128 14.7844 97.6688 14.2244C98.7408 13.6484 99.9648 13.3604 101.341 13.3604C102.701 13.3604 103.917 13.6484 104.989 14.2244C106.061 14.7844 106.901 15.5604 107.509 16.5524C108.117 17.5444 108.421 18.6964 108.421 20.0084C108.421 21.2884 108.117 22.4324 107.509 23.4404C106.901 24.4324 106.061 25.2164 104.989 25.7924C103.917 26.3684 102.701 26.6564 101.341 26.6564ZM101.341 23.5844C101.965 23.5844 102.525 23.4404 103.021 23.1524C103.517 22.8644 103.909 22.4564 104.197 21.9284C104.485 21.3844 104.629 20.7444 104.629 20.0084C104.629 19.2564 104.485 18.6164 104.197 18.0884C103.909 17.5604 103.517 17.1524 103.021 16.8644C102.525 16.5764 101.965 16.4324 101.341 16.4324C100.717 16.4324 100.157 16.5764 99.6608 16.8644C99.1648 17.1524 98.7648 17.5604 98.4608 18.0884C98.1728 18.6164 98.0288 19.2564 98.0288 20.0084C98.0288 20.7444 98.1728 21.3844 98.4608 21.9284C98.7648 22.4564 99.1648 22.8644 99.6608 23.1524C100.157 23.4404 100.717 23.5844 101.341 23.5844ZM116.467 26.6564C115.251 26.6564 114.155 26.3844 113.179 25.8404C112.203 25.2804 111.427 24.5044 110.851 23.5124C110.291 22.5204 110.011 21.3524 110.011 20.0084C110.011 18.6484 110.291 17.4724 110.851 16.4804C111.427 15.4884 112.203 14.7204 113.179 14.1764C114.155 13.6324 115.251 13.3604 116.467 13.3604C117.555 13.3604 118.507 13.6004 119.323 14.0804C120.139 14.5604 120.771 15.2884 121.219 16.2644C121.667 17.2404 121.891 18.4884 121.891 20.0084C121.891 21.5124 121.675 22.7604 121.243 23.7524C120.811 24.7284 120.187 25.4564 119.371 25.9364C118.571 26.4164 117.603 26.6564 116.467 26.6564ZM117.115 23.5844C117.723 23.5844 118.275 23.4404 118.771 23.1524C119.267 22.8644 119.659 22.4564 119.947 21.9284C120.251 21.3844 120.403 20.7444 120.403 20.0084C120.403 19.2564 120.251 18.6164 119.947 18.0884C119.659 17.5604 119.267 17.1524 118.771 16.8644C118.275 16.5764 117.723 16.4324 117.115 16.4324C116.491 16.4324 115.931 16.5764 115.435 16.8644C114.939 17.1524 114.539 17.5604 114.235 18.0884C113.947 18.6164 113.803 19.2564 113.803 20.0084C113.803 20.7444 113.947 21.3844 114.235 21.9284C114.539 22.4564 114.939 22.8644 115.435 23.1524C115.931 23.4404 116.491 23.5844 117.115 23.5844ZM120.499 26.4644V23.8244L120.571 19.9844L120.331 16.1684V8.65635H124.075V26.4644H120.499ZM131.405 17.2244H139.469V20.3444H131.405V17.2244ZM131.693 26.4644H127.805V9.66435H140.501V12.7844H131.693V26.4644ZM142.869 26.4644V8.65635H146.613V26.4644H142.869ZM156.231 26.6564C154.855 26.6564 153.631 26.3684 152.559 25.7924C151.503 25.2164 150.663 24.4324 150.039 23.4404C149.431 22.4324 149.127 21.2884 149.127 20.0084C149.127 18.7124 149.431 17.5684 150.039 16.5764C150.663 15.5684 151.503 14.7844 152.559 14.2244C153.631 13.6484 154.855 13.3604 156.231 13.3604C157.591 13.3604 158.807 13.6484 159.879 14.2244C160.951 14.7844 161.791 15.5604 162.399 16.5524C163.007 17.5444 163.311 18.6964 163.311 20.0084C163.311 21.2884 163.007 22.4324 162.399 23.4404C161.791 24.4324 160.951 25.2164 159.879 25.7924C158.807 26.3684 157.591 26.6564 156.231 26.6564ZM156.231 23.5844C156.855 23.5844 157.415 23.4404 157.911 23.1524C158.407 22.8644 158.799 22.4564 159.087 21.9284C159.375 21.3844 159.519 20.7444 159.519 20.0084C159.519 19.2564 159.375 18.6164 159.087 18.0884C158.799 17.5604 158.407 17.1524 157.911 16.8644C157.415 16.5764 156.855 16.4324 156.231 16.4324C155.607 16.4324 155.047 16.5764 154.551 16.8644C154.055 17.1524 153.655 17.5604 153.351 18.0884C153.063 18.6164 152.919 19.2564 152.919 20.0084C152.919 20.7444 153.063 21.3844 153.351 21.9284C153.655 22.4564 154.055 22.8644 154.551 23.1524C155.047 23.4404 155.607 23.5844 156.231 23.5844ZM168.414 26.4644L163.758 13.5524H167.286L171.15 24.6644H169.47L173.502 13.5524H176.67L180.582 24.6644H178.902L182.886 13.5524H186.198L181.518 26.4644H177.894L174.462 16.9364H175.566L172.014 26.4644H168.414Z" fill="#144C68"/>
</svg>
