<svg width="15" height="15" viewBox="0 0 15 15" fill="none" xmlns="http://www.w3.org/2000/svg">
<g clip-path="url(#clip0_424_985)">
<path d="M3.73033 1.1473C3.93248 0.985576 3.96526 0.690595 3.80353 0.488441C3.64181 0.286287 3.34683 0.253512 3.14467 0.415235L1.58217 1.66524C1.38002 1.82696 1.34724 2.12194 1.50897 2.32409C1.67069 2.52625 1.96567 2.55902 2.16783 2.3973L3.73033 1.1473Z" fill="black"/>
<path d="M11.8553 0.415235C11.6532 0.253512 11.3582 0.286287 11.1965 0.488441C11.0347 0.690595 11.0675 0.985576 11.2697 1.1473L12.8322 2.3973C13.0343 2.55902 13.3293 2.52625 13.491 2.32409C13.6528 2.12194 13.62 1.82696 13.4178 1.66524L11.8553 0.415235Z" fill="black"/>
<path d="M7.96875 5.00002C7.96875 4.74113 7.75888 4.53127 7.5 4.53127C7.24112 4.53127 7.03125 4.74113 7.03125 5.00002L7.03125 7.18752C7.03125 7.4464 6.82138 7.65627 6.5625 7.65627H5.625C5.36612 7.65627 5.15625 7.86613 5.15625 8.12502C5.15625 8.3839 5.36612 8.59377 5.625 8.59377H6.5625C7.33915 8.59377 7.96875 7.96417 7.96875 7.18752L7.96875 5.00002Z" fill="black"/>
<path fill-rule="evenodd" clip-rule="evenodd" d="M7.5 0.781267C3.78934 0.781267 0.78125 3.78935 0.78125 7.50002C0.78125 11.2107 3.78934 14.2188 7.5 14.2188C11.2107 14.2188 14.2188 11.2107 14.2188 7.50002C14.2188 3.78935 11.2107 0.781267 7.5 0.781267ZM1.71875 7.50002C1.71875 4.30712 4.3071 1.71877 7.5 1.71877C10.6929 1.71877 13.2812 4.30712 13.2812 7.50002C13.2812 10.6929 10.6929 13.2813 7.5 13.2813C4.3071 13.2813 1.71875 10.6929 1.71875 7.50002Z" fill="black"/>
</g>
<defs>
<clipPath id="clip0_424_985">
<rect width="15" height="15" fill="white"/>
</clipPath>
</defs>
</svg>
