<svg width="16" height="16" viewBox="0 0 16 16" fill="none" xmlns="http://www.w3.org/2000/svg">
<path d="M14 3.98665C11.78 3.76665 9.54667 3.65332 7.32 3.65332C6 3.65332 4.68 3.71999 3.36 3.85332L2 3.98665" fill="white"/>
<path d="M14 3.98665C11.78 3.76665 9.54667 3.65332 7.32 3.65332C6 3.65332 4.68 3.71999 3.36 3.85332L2 3.98665" stroke="white" stroke-width="1.2" stroke-linecap="round" stroke-linejoin="round"/>
<path d="M5.66699 3.3135L5.81366 2.44016C5.92033 1.80683 6.00033 1.3335 7.12699 1.3335H8.87366C10.0003 1.3335 10.087 1.8335 10.187 2.44683L10.3337 3.3135" fill="white"/>
<path d="M5.66699 3.3135L5.81366 2.44016C5.92033 1.80683 6.00033 1.3335 7.12699 1.3335H8.87366C10.0003 1.3335 10.087 1.8335 10.187 2.44683L10.3337 3.3135" stroke="white" stroke-width="1.2" stroke-linecap="round" stroke-linejoin="round"/>
<path d="M12.5664 6.09326L12.1331 12.8066C12.0598 13.8533 11.9998 14.6666 10.1398 14.6666H5.85977C3.99977 14.6666 3.93977 13.8533 3.86644 12.8066L3.43311 6.09326" fill="white"/>
<path d="M12.5664 6.09326L12.1331 12.8066C12.0598 13.8533 11.9998 14.6666 10.1398 14.6666H5.85977C3.99977 14.6666 3.93977 13.8533 3.86644 12.8066L3.43311 6.09326" stroke="white" stroke-width="1.2" stroke-linecap="round" stroke-linejoin="round"/>
<path d="M6.88672 11H9.10672" stroke="white" stroke-width="1.2" stroke-linecap="round" stroke-linejoin="round"/>
<path d="M6.33301 8.3335H9.66634" stroke="white" stroke-width="1.2" stroke-linecap="round" stroke-linejoin="round"/>
</svg>
